<svg xmlns="http://www.w3.org/2000/svg"
viewBox = "6 11 15 29"
width = "100%"
height = "100%"
preserveAspectRatio = "xMidYMid meet"
fill = "none" >

  <path d="M7.23843 33.7346C6.58713 33.9706 6.54766 34.8767 7.17579 35.1676L9.65483 36.3175C9.84189 36.4041 10.0556 36.4127 10.2495 36.3415L16.1369 34.1748V30.5142L7.23843 33.7337V33.7346Z" fill = "#FF5500" />
    <path d="M13.7358 36.7746C13.0858 37.0134 13.0488 37.9192 13.6782 38.2086L16.1365 39.3403V35.8945L13.7358 36.7746Z" fill = "#FF5500" />
      <path d="M20.594 17.8212C20.594 14.3874 17.7445 11.6185 14.2814 11.7506C11.1179 11.8716 8.54724 14.4611 8.44771 17.6256C8.35676 20.512 10.2813 22.9625 12.9198 23.6815V26.326L7.26964 28.3715C6.6184 28.6075 6.57893 29.5135 7.207 29.8044L9.68585 30.9542C9.8729 31.0408 10.0865 31.0494 10.2805 30.9782L16.1417 28.822V23.6747C18.7089 22.9651 20.5948 20.6141 20.5948 17.8203L20.594 17.8212ZM14.5251 20.6827C12.9541 20.6827 11.6808 19.4094 11.6808 17.8383C11.6808 16.2673 12.9541 14.994 14.5251 14.994C16.0962 14.994 17.3695 16.2673 17.3695 17.8383C17.3695 19.4094 16.0962 20.6827 14.5251 20.6827Z" fill = "#FF5500" />

        </svg>
