<svg xmlns="http://www.w3.org/2000/svg"
viewBox = "0 1 22 22"
width = "100%"
height = "100%"
preserveAspectRatio = "xMidYMid meet"
fill = "none" >

  <path d="M20.5765 7.34934L10.1977 17.9871H20.4515V22.6119H4.9312C4.56842 22.6114 4.21387 22.5009 3.91226 22.2942C3.61065 22.0875 3.37546 21.794 3.23633 21.4505C3.0972 21.107 3.06036 20.729 3.13045 20.3641C3.20054 19.9992 3.37442 19.6637 3.63019 19.4L17.9836 4.69131C18.328 4.33988 18.7941 4.14258 19.2801 4.14258C19.766 4.14258 20.2321 4.33988 20.5765 4.69131C20.9193 5.04434 21.1117 5.52219 21.1117 6.02033C21.1117 6.51846 20.9193 6.99631 20.5765 7.34934Z"
fill = "#FF5E00" />

  <path d="M1.04347 16.7363L11.4222 6.09849H1.17027V1.47754H16.6906C17.051 1.4809 17.4025 1.59287 17.7014 1.7995C18.0002 2.00612 18.2332 2.29829 18.3713 2.63963C18.5094 2.98096 18.5465 3.3564 18.478 3.71919C18.4095 4.08198 18.2384 4.41611 17.9861 4.67999L3.63081 19.3943C3.28636 19.7463 2.81983 19.944 2.33347 19.944C1.8471 19.944 1.38057 19.7463 1.03612 19.3943C0.694286 19.0403 0.503146 18.5619 0.504524 18.0637C0.505902 17.5656 0.699684 17.0883 1.04347 16.7363Z"
fill = "#6E0AD6" />

  </svg>
