<svg xmlns="http://www.w3.org/2000/svg" width="239.763" height="228.255" viewBox="0 0 239.763 228.255">
                        <g id="Grupo_143" data-name="Grupo 143" transform="translate(0.003 0)">
                            <path id="Caminho_8" data-name="Caminho 8" d="M324.071,507.151l-13.587,7.824a4.367,4.367,0,0,0-2.344,4.036V570.22a2.323,2.323,0,0,0,2.321,2.321H324.2a.508.508,0,0,0,.507-.507V507.517A.425.425,0,0,0,324.071,507.151Z" transform="translate(-209.21 -344.286)" fill="#e5173f"></path>
                            <path id="Caminho_9" data-name="Caminho 9" d="M399.831,459.873l-17.273,9.94a1.692,1.692,0,0,0-.848,1.464v68.3a.508.508,0,0,0,.507.507l19,.026a3.6,3.6,0,0,0,3.609-3.6v-74.05C404.83,459.619,402.091,458.586,399.831,459.873Z" transform="translate(-259.16 -311.854)" fill="#e5173f"></path>
                            <path id="Caminho_10" data-name="Caminho 10" d="M113.362,48.847a268.311,268.311,0,0,0-44.239,3.84A84.041,84.041,0,0,1,135.48,20.5c19.89,0,39.776,7.5,53.161,18.654,2.418,2.013,4.277,2.2,6.135.366s1.673-3.657-.372-6.036C176.932,13.183,151.282-.533,120.984.016,81.39.748,47.75,25.8,34.923,60.549A168.521,168.521,0,0,0,2.952,73.9C.348,75.363-.58,77.19.348,79.386,1.276,81.4,3.135,82.128,5.739,81.4c8.177-2.379,16.544-4.389,25.28-6.219a71.527,71.527,0,0,0-1.487,14.265c-.745,32,16.358,62.363,42.753,79.007,2.6,1.647,4.832,1.647,6.318-.366s1.3-3.84-.928-5.853c-16.73-15-26.022-37.307-26.022-59.438a78.437,78.437,0,0,1,6.5-31.637c8.736-.732,18.217-1.281,28.626-1.281,67.66,0,124.723,22.311,124.723,51.572,0,14.814-18.772,29.628-41.08,39.5-5.391,2.376-5.949,4.023-5.2,6.4.745,2.2,3.159,2.925,5.949,2.013,39.035-12.8,68.588-33.833,68.588-59.255C239.757,75.546,184,48.847,113.362,48.847Z" transform="translate(0 0)" fill="#e5173f"></path>
                        </g>
                    </svg>