<svg width="600" height="600" viewBox="0 0 600 600" fill="none" xmlns="http://www.w3.org/2000/svg">
<g clip-path="url(#clip0_60806_107)">
<path d="M269.937 -0.167954C272.277 -0.171185 274.617 -0.17455 276.957 -0.17804C281.835 -0.183976 286.712 -0.185886 291.59 -0.185288C296.501 -0.185207 301.413 -0.192093 306.324 -0.205796C335.614 -0.286182 364.773 -0.0109887 394 2.00001C395.73 2.1171 395.73 2.1171 397.495 2.23656C404.024 2.68928 410.544 3.22107 417.062 3.81251C418.005 3.8965 418.947 3.98048 419.918 4.067C451.641 6.91321 482.845 11.3709 514 18C515.07 18.2216 516.14 18.4431 517.243 18.6714C532.058 21.778 546.509 26.7076 558 37C558.661 37.5814 559.323 38.1627 560.004 38.7617C573.354 51.2503 578.202 67.8945 581.875 85.25C582.042 86.0282 582.209 86.8065 582.381 87.6083C589.778 122.388 593.966 157.96 596.787 193.384C596.998 195.975 597.224 198.565 597.453 201.154C603.254 267.866 603.047 337.316 597 404C596.821 406.051 596.642 408.103 596.464 410.154C593.382 445.116 589.225 479.958 581.938 514.312C581.778 515.078 581.618 515.844 581.453 516.632C577.211 536.735 569.523 556.495 551.672 568.289C538.862 576.143 524.744 579.863 510.187 582.938C509.399 583.106 508.61 583.275 507.798 583.448C465.168 592.502 421.48 596.733 378 599C377.225 599.041 376.449 599.081 375.65 599.123C360.448 599.897 345.283 600.163 330.062 600.168C327.723 600.171 325.383 600.175 323.043 600.178C318.165 600.184 313.288 600.186 308.41 600.185C303.499 600.185 298.587 600.192 293.676 600.206C264.386 600.286 235.227 600.011 206 598C204.847 597.922 203.693 597.844 202.505 597.763C195.975 597.311 189.456 596.779 182.937 596.188C181.995 596.104 181.053 596.02 180.082 595.933C148.359 593.087 117.155 588.629 86 582C84.9297 581.778 83.8595 581.557 82.7568 581.329C67.9421 578.222 53.491 573.292 42 563C41.3387 562.419 40.6774 561.837 39.9961 561.238C26.6462 548.75 21.7981 532.106 18.125 514.75C17.958 513.972 17.791 513.194 17.619 512.392C10.2221 477.612 6.03434 442.04 3.21287 406.616C3.00202 404.025 2.77616 401.435 2.54685 398.846C-3.25427 332.134 -3.04673 262.684 2.99998 196C3.17905 193.949 3.35775 191.897 3.53611 189.846C6.61558 154.906 10.7572 120.079 18.0625 85.75C18.2223 84.9888 18.3821 84.2276 18.5468 83.4433C22.9167 62.8528 30.1748 44.1145 48.2578 31.7774C61.1226 23.9086 75.201 20.1486 89.8125 17.0625C90.6011 16.8939 91.3897 16.7253 92.2022 16.5517C134.832 7.49824 178.52 3.26711 222 1.00001C222.775 0.959485 223.551 0.918955 224.35 0.877197C239.552 0.102986 254.717 -0.162883 269.937 -0.167954ZM67.4062 264.098C62.5768 270.631 61.9177 278.066 63 286C65.6515 294.17 69.7723 298.446 77 302.812C83.689 305.42 92.6506 305.072 99.4375 302.938C105.655 300.062 109.694 295.316 112.437 289.125C115.154 281.34 114.73 274.906 111.387 267.363C107.746 261.159 102.23 257.326 95.3476 255.438C84.645 253.443 74.8263 255.82 67.4062 264.098ZM494.304 264.102C493.308 264.277 493.308 264.277 492.292 264.456C490.106 264.843 487.92 265.234 485.734 265.625C484.216 265.894 482.697 266.163 481.178 266.432C477.186 267.139 473.194 267.851 469.203 268.563C465.128 269.289 461.052 270.012 456.977 270.734C448.984 272.152 440.992 273.575 433 275C433 283.25 433 291.5 433 300C456.76 300 480.52 300 505 300C505 287.79 505 275.58 505 263C501.23 263 498.007 263.443 494.304 264.102ZM184.966 276.643C184.185 276.783 183.405 276.923 182.601 277.067C181.768 277.22 180.936 277.373 180.078 277.531C179.218 277.687 178.358 277.842 177.472 278.002C174.731 278.498 171.99 278.999 169.25 279.5C167.389 279.838 165.529 280.175 163.668 280.512C159.111 281.337 154.556 282.169 150 283C150 295.54 150 308.08 150 321C142.74 321 135.48 321 128 321C128 331.89 128 342.78 128 354C135.26 354 142.52 354 150 354C149.984 356.27 149.969 358.539 149.952 360.878C149.902 368.418 149.869 375.957 149.845 383.497C149.829 388.064 149.808 392.63 149.774 397.197C149.741 401.612 149.723 406.028 149.715 410.443C149.71 412.119 149.699 413.795 149.683 415.471C149.531 431.731 151.615 448.045 163.324 460.48C174.666 470.765 188.259 473.179 203.062 473.188C204.666 473.206 204.666 473.206 206.303 473.225C213.674 473.238 220.804 472.677 228 471C229.351 469.876 229.351 469.876 229.114 466.949C229.113 465.6 229.108 464.251 229.098 462.902C229.096 462.193 229.095 461.485 229.093 460.754C229.088 458.482 229.075 456.21 229.062 453.938C229.057 452.4 229.053 450.863 229.049 449.326C229.038 445.551 229.02 441.775 229 438C228.31 438.021 227.619 438.042 226.908 438.063C223.751 438.147 220.595 438.199 217.437 438.25C216.351 438.284 215.265 438.317 214.146 438.352C207.503 438.432 203.363 438.042 198 434C194.153 428.87 193.873 424.315 193.795 418.028C193.785 417.335 193.775 416.642 193.765 415.928C193.733 413.645 193.708 411.361 193.684 409.078C193.663 407.492 193.642 405.906 193.621 404.32C193.565 400.151 193.516 395.982 193.468 391.812C193.409 386.807 193.342 381.802 193.277 376.797C193.18 369.198 193.091 361.599 193 354C205.54 354 218.08 354 231 354C231 343.11 231 332.22 231 321C218.46 321 205.92 321 193 321C193 306.15 193 291.3 193 276C190.066 276 187.789 276.129 184.966 276.643ZM254 327C254 338.22 254 349.44 254 361C257.63 360.01 261.26 359.02 265 358C268.56 357.107 272.119 356.228 275.687 355.375C276.572 355.158 277.457 354.942 278.369 354.719C294.177 350.933 312.161 349.139 326.988 357.062C331.297 360.142 333.658 364.994 335 370C335.062 372.332 335.074 374.668 335 377C333.914 376.976 333.914 376.976 332.807 376.952C305.256 376.435 278.436 377.737 257.262 397.582C247.712 407.792 245.292 419.408 245.715 432.938C245.991 437.965 246.968 442.384 249 447C249.329 447.754 249.657 448.508 249.996 449.285C255.882 461.159 265.746 467.88 278.059 472.031C292.574 475.945 307.58 475.418 321.035 468.422C326.813 464.969 330.876 461.287 335 456C335.66 455.67 336.32 455.34 337 455C337 459.95 337 464.9 337 470C350.2 470 363.4 470 377 470C377.091 457.108 377.164 444.215 377.207 431.323C377.228 425.335 377.256 419.347 377.302 413.359C377.346 407.569 377.369 401.779 377.379 395.988C377.387 393.791 377.401 391.594 377.423 389.396C377.619 368.758 375.68 350.165 361.062 334.188C345.538 319.58 324.71 316.313 304.119 316.911C286.869 317.635 270.165 320.938 254 327ZM67 321C67 370.17 67 419.34 67 470C81.19 470 95.38 470 110 470C110 420.83 110 371.66 110 321C95.81 321 81.62 321 67 321ZM400 321C399.932 334.449 399.877 347.897 399.845 361.346C399.829 367.591 399.808 373.837 399.774 380.083C399.741 386.12 399.723 392.156 399.715 398.193C399.71 400.486 399.699 402.78 399.683 405.074C399.549 424.743 400.309 444.037 413.773 459.746C423.659 469.753 436.105 474.185 450 474.312C461.742 474.335 472.62 471.309 482 464C484.885 461.124 487.414 458.161 490 455C490.99 462.425 490.99 462.425 492 470C505.53 470 519.06 470 533 470C533 420.83 533 371.66 533 321C518.81 321 504.62 321 490 321C489.974 327.875 489.948 334.749 489.922 341.832C489.897 346.203 489.87 350.573 489.84 354.943C489.792 361.871 489.747 368.799 489.729 375.727C489.714 381.317 489.679 386.906 489.632 392.495C489.617 394.621 489.609 396.747 489.608 398.873C489.589 423.033 489.589 423.033 482.687 432.5C476.204 438.532 470.178 438.539 461.543 438.352C455.712 437.773 453.048 435.877 448.75 431.938C442.265 421.052 443.524 407.921 443.488 395.707C443.471 393.548 443.453 391.389 443.434 389.23C443.387 383.58 443.357 377.93 443.33 372.279C443.295 365.482 443.238 358.686 443.185 351.889C443.107 341.593 443.056 331.297 443 321C428.81 321 414.62 321 400 321Z" fill="#FF6200"/>
<path d="M336 404C336.088 407.167 336.141 410.333 336.187 413.5C336.213 414.387 336.238 415.274 336.264 416.188C336.349 423.89 335.048 430.696 329.629 436.617C323.072 442.183 315.482 444.235 307 444C299.739 443.156 293.698 440.832 289 435C286.591 429.265 286.635 423.982 288 418C291.126 411.972 295.553 408.138 301.891 405.66C310.525 402.958 327.495 399.748 336 404Z" fill="#FF6200"/>
</g>
<defs>
<clipPath id="clip0_60806_107">
<rect width="600" height="600" fill="white"/>
</clipPath>
</defs>
</svg>
