<svg width="26" height="24" viewBox="0 0 26 24" fill="none" xmlns="http://www.w3.org/2000/svg">
<path fill-rule="evenodd" clip-rule="evenodd" d="M12.8897 0C13.0063 0.573264 13.2162 1.13225 13.52 1.65395L17.504 8.49466C17.9558 9.27015 18.1999 10.1281 18.2377 10.993C22.503 12.0975 25.4464 14.4436 25.4464 17.1595C25.4464 20.9373 19.7501 24 12.7233 24C5.69637 24 0 20.9373 0 17.1595C0 14.4438 2.94374 12.0983 7.20873 10.9936C7.164 12.0169 7.40816 13.0497 7.94255 13.9671L11.9265 20.808C12.2302 21.3295 12.4402 21.8885 12.5567 22.4618L12.7233 22.1759C13.7094 20.4826 13.7094 18.3965 12.7233 16.7034L9.52642 11.2137C8.55031 9.52344 8.55336 7.44588 9.53608 5.75834L9.70246 5.47246C9.8192 6.04573 10.029 6.60472 10.3328 7.12641L15.1137 15.3354C15.4175 15.8571 15.6274 16.416 15.744 16.9893L15.9105 16.7034C16.8965 15.0102 16.8965 12.9241 15.9105 11.231L12.7231 5.75817C11.7372 4.06492 11.7372 1.97913 12.7233 0.285876L12.8897 0Z" fill="#EC0000"/>
</svg>
