<svg width="296" height="296" viewBox="0 0 296 296" fill="none" xmlns="http://www.w3.org/2000/svg">
<path d="M21.0014 148C7.89536 132.339 0 112.126 0 90.0596C0 40.321 40.1131 0 89.5951 0C111.99 0 132.466 8.2594 148.173 21.9131C163.843 8.2594 184.271 0 206.614 0C255.981 0 296 40.321 296 90.0596C296 112.126 288.123 132.339 275.048 148C288.123 163.661 296 183.874 296 205.94C296 255.679 255.981 296 206.614 296C184.271 296 163.843 287.741 148.173 274.087C132.466 287.741 111.99 296 89.5951 296C40.1131 296 0 255.679 0 205.94C0 183.874 7.89536 163.661 21.0014 148Z" fill="#6750A4"/>
</svg>
