<svg width="296" height="316" viewBox="0 0 296 316" fill="none" xmlns="http://www.w3.org/2000/svg">
<path d="M92.1855 22.5654C123.276 -7.52178 172.724 -7.52178 203.814 22.5654C213.328 31.7718 224.984 38.4811 237.738 42.0919C279.419 53.8924 304.142 96.5858 293.552 138.473C290.312 151.291 290.312 164.709 293.552 177.527C304.142 219.414 279.419 262.108 237.738 273.908C224.984 277.519 213.328 284.228 203.814 293.435C172.724 323.522 123.276 323.522 92.1855 293.435C82.672 284.228 71.016 277.519 58.262 273.908C16.5815 262.108 -8.14224 219.414 2.44755 177.527C5.68794 164.709 5.68794 151.291 2.44755 138.473C-8.14224 96.5858 16.5815 53.8924 58.262 42.0919C71.016 38.4811 82.672 31.7718 92.1855 22.5654Z" fill="#6750A4"/>
</svg>
