<svg width="320" height="316" viewBox="0 0 320 316" fill="none" xmlns="http://www.w3.org/2000/svg">
<path d="M112.67 19.7842C116.243 16.6394 118.029 15.067 119.671 13.7954C143.425 -4.59845 176.575 -4.59845 200.329 13.7954C201.971 15.067 203.757 16.6394 207.33 19.7842C208.526 20.8372 209.124 21.3636 209.724 21.8672C218.136 28.9247 228.171 33.7683 238.92 35.9594C239.688 36.1158 240.471 36.2562 242.038 36.537C246.719 37.3756 249.059 37.7949 251.075 38.2889C280.234 45.4346 300.902 71.4108 301.364 101.493C301.396 103.573 301.283 105.953 301.057 110.713C300.982 112.307 300.944 113.104 300.925 113.888C300.665 124.88 303.143 135.763 308.136 145.553C308.493 146.252 308.872 146.953 309.63 148.356C311.894 152.547 313.026 154.642 313.897 156.53C326.503 183.834 319.127 216.226 295.949 235.344C294.347 236.666 292.42 238.061 288.566 240.852C287.276 241.787 286.63 242.254 286.007 242.729C277.27 249.377 270.326 258.105 265.803 268.122C265.48 268.837 265.169 269.571 264.547 271.04C262.69 275.427 261.761 277.62 260.832 279.48C247.393 306.382 217.526 320.798 188.162 314.556C186.132 314.124 183.842 313.484 179.262 312.204C177.728 311.776 176.962 311.562 176.203 311.369C165.569 308.668 154.431 308.668 143.797 311.369C143.038 311.562 142.272 311.776 140.738 312.204C136.158 313.484 133.868 314.124 131.838 314.556C102.474 320.798 72.6071 306.382 59.168 279.48C58.2388 277.62 57.3102 275.427 55.453 271.04C54.8311 269.571 54.5202 268.837 54.1975 268.122C49.6741 258.105 42.7297 249.377 33.993 242.729C33.3696 242.254 32.7244 241.787 31.434 240.852C27.5801 238.061 25.6532 236.666 24.0507 235.344C0.872976 216.226 -6.50346 183.834 6.10268 156.53C6.97423 154.642 8.10625 152.547 10.3703 148.356C11.1283 146.953 11.5074 146.252 11.8636 145.553C16.8568 135.763 19.3353 124.88 19.0745 113.888C19.0559 113.104 19.0182 112.307 18.9426 110.713C18.7168 105.953 18.6039 103.573 18.6359 101.493C19.0982 71.4108 39.7665 45.4346 68.9252 38.2889C70.9411 37.7949 73.2814 37.3756 77.9618 36.537C79.5289 36.2562 80.3125 36.1158 81.0795 35.9594C91.8294 33.7683 101.864 28.9247 110.276 21.8672C110.876 21.3636 111.474 20.8372 112.67 19.7842Z" fill="#6750A4"/>
</svg>
