<svg width="324" height="320" viewBox="0 0 324 320" fill="none" xmlns="http://www.w3.org/2000/svg">
<path d="M126.828 13.3757C128.575 11.9499 129.448 11.237 130.245 10.6352C149.03 -3.54505 174.97 -3.54505 193.755 10.6352C194.552 11.237 195.426 11.9499 197.172 13.3757C197.952 14.0122 198.342 14.3305 198.728 14.6334C207.568 21.5789 218.406 25.5149 229.653 25.8637C230.143 25.8789 230.647 25.8852 231.654 25.8977C233.911 25.9256 235.039 25.9396 236.038 25.9899C259.563 27.1743 279.435 43.8108 284.689 66.7206C284.912 67.693 285.122 68.7992 285.541 71.0116C285.728 71.9993 285.822 72.4931 285.922 72.9724C288.22 83.9624 293.987 93.9286 302.377 101.409C302.743 101.735 303.125 102.063 303.889 102.718C305.599 104.187 306.455 104.921 307.187 105.6C324.446 121.595 328.95 147.084 318.216 168.003C317.76 168.891 317.208 169.873 316.104 171.837C315.611 172.714 315.365 173.152 315.133 173.583C309.812 183.475 307.809 194.808 309.418 205.92C309.488 206.404 309.569 206.9 309.732 207.892C310.096 210.114 310.278 211.225 310.402 212.215C313.318 235.536 300.348 257.951 278.647 267.092C277.726 267.48 276.671 267.878 274.56 268.674C273.617 269.03 273.146 269.207 272.69 269.389C262.242 273.555 253.406 280.952 247.48 290.495C247.221 290.911 246.964 291.343 246.45 292.208C245.297 294.143 244.721 295.111 244.178 295.949C231.387 315.684 207.011 324.536 184.498 317.621C183.543 317.328 182.478 316.956 180.348 316.212C179.397 315.88 178.921 315.714 178.455 315.561C167.767 312.051 156.233 312.051 145.545 315.561C145.079 315.714 144.604 315.88 143.653 316.212C141.523 316.956 140.458 317.328 139.502 317.621C116.989 324.536 92.6131 315.684 79.8223 295.949C79.2794 295.111 78.7031 294.143 77.5505 292.208C77.036 291.343 76.7787 290.911 76.5203 290.495C70.5942 280.952 61.7586 273.555 51.3098 269.389C50.8541 269.207 50.3829 269.03 49.4406 268.674C47.3297 267.878 46.2742 267.48 45.3532 267.092C23.6525 257.951 10.6822 235.536 13.5983 212.215C13.722 211.225 13.9042 210.114 14.2684 207.892C14.431 206.9 14.5123 206.404 14.5825 205.92C16.1911 194.808 14.1882 183.475 8.86773 173.583C8.63566 173.152 8.38924 172.714 7.89641 171.837C6.79237 169.873 6.24036 168.891 5.78474 168.003C-4.9499 147.084 -0.445344 121.595 16.8131 105.6C17.5456 104.921 18.4009 104.187 20.1116 102.718C20.8752 102.063 21.257 101.735 21.623 101.409C30.0136 93.9286 35.7807 83.9624 38.0779 72.9724C38.1781 72.4931 38.2718 71.9993 38.459 71.0116C38.8785 68.7992 39.0883 67.6929 39.3113 66.7206C44.5654 43.8108 64.4372 27.1743 87.9625 25.9899C88.961 25.9396 90.0894 25.9256 92.346 25.8977C93.3534 25.8852 93.857 25.8789 94.3476 25.8637C105.594 25.5149 116.433 21.5789 125.273 14.6334C125.658 14.3305 126.048 14.0122 126.828 13.3757Z" fill="#6750A4"/>
</svg>
