<svg width="310" height="310" viewBox="0 0 310 310" fill="none" xmlns="http://www.w3.org/2000/svg">
<path d="M310 258.727C310 264.96 310 268.076 309.689 270.696C307.259 291.14 291.14 307.259 270.696 309.689C268.076 310 264.96 310 258.727 310H51.2732C45.0405 310 41.9242 310 39.3043 309.689C18.8596 307.259 2.74071 291.14 0.311326 270.696C9.86457e-06 268.076 9.61297e-06 264.96 9.06809e-06 258.727L0 155C-7.48375e-06 69.3959 69.3958 7.48375e-06 155 0C240.604 -7.48375e-06 310 69.3958 310 155V258.727Z" fill="#6750A4"/>
</svg>
