<svg width="320" height="290" viewBox="0 0 320 290" fill="none" xmlns="http://www.w3.org/2000/svg">
<path d="M232.422 59.9068C223.213 45.2936 213.84 30.4777 201.389 18.8739C188.938 7.24119 172.808 -0.97696 156.27 0.0937147C141.748 1.04864 128.288 9.09317 117.662 19.5974C107.036 30.1015 98.7807 43.0365 90.6614 55.8556C68.7011 90.4645 46.7136 125.073 24.7533 159.711C14.3181 176.147 3.61045 193.307 0.722376 212.898C-2.76511 236.568 6.63475 260.673 23.3093 276.415C40.7467 292.88 69.0008 291.549 90.2254 287.035C113.493 282.086 136.244 272.769 159.975 272.797C180.301 272.797 199.945 279.685 219.726 284.691C239.479 289.668 260.704 292.735 279.776 285.327C303.453 276.154 320.454 250.082 319.991 223.315C319.555 198.892 293.508 156.759 293.508 156.759C293.508 156.759 252.78 92.1937 232.422 59.9068Z" fill="#6750A4"/>
</svg>
