<svg width="328" height="328" viewBox="0 0 328 328" fill="none" xmlns="http://www.w3.org/2000/svg">
<path d="M160.738 10.413C161.51 4.23993 161.896 1.15341 162.483 0.601907C163.337 -0.200636 164.663 -0.200636 165.517 0.601907C166.104 1.15341 166.49 4.23993 167.262 10.413L177.079 88.9066C177.39 91.3981 177.546 92.6439 177.993 93.1579C178.642 93.9043 179.703 94.131 180.598 93.7146C181.214 93.4279 181.861 92.3535 183.153 90.2048L223.875 22.5119C227.078 17.1883 228.679 14.5264 229.438 14.2626C230.543 13.8785 231.754 14.4209 232.21 15.5032C232.522 16.247 231.626 19.2245 229.835 25.1796L207.049 100.902C206.326 103.305 205.964 104.507 206.165 105.159C206.456 106.107 207.333 106.748 208.319 106.733C208.998 106.723 210.023 106.006 212.073 104.572L276.659 59.3844C281.738 55.8306 284.278 54.0538 285.078 54.1231C286.243 54.2241 287.13 55.2151 287.108 56.39C287.093 57.1974 285.07 59.5511 281.024 64.2585L229.576 124.116C227.943 126.016 227.126 126.966 227.045 127.644C226.928 128.628 227.47 129.573 228.377 129.963C229.001 130.231 230.228 129.995 232.681 129.524L309.963 114.655C316.041 113.485 319.08 112.901 319.783 113.291C320.806 113.86 321.215 115.128 320.72 116.192C320.38 116.924 317.579 118.247 311.979 120.893L240.764 154.536C238.503 155.604 237.373 156.137 237.025 156.724C236.52 157.575 236.633 158.66 237.304 159.387C237.765 159.887 238.981 160.173 241.413 160.745L318.029 178.766C324.054 180.184 327.067 180.892 327.551 181.537C328.256 182.474 328.117 183.8 327.234 184.57C326.627 185.099 323.534 185.163 317.347 185.289L238.679 186.901C236.182 186.952 234.933 186.977 234.378 187.371C233.572 187.942 233.237 188.979 233.555 189.917C233.774 190.563 234.77 191.322 236.76 192.839L299.462 240.634C304.393 244.393 306.858 246.272 307.04 247.059C307.304 248.203 306.641 249.358 305.523 249.7C304.755 249.935 301.903 248.728 296.2 246.314L223.681 215.615C221.379 214.641 220.228 214.153 219.562 214.286C218.595 214.478 217.869 215.288 217.78 216.275C217.719 216.955 218.321 218.055 219.526 220.255L257.472 289.559C260.456 295.01 261.948 297.735 261.796 298.528C261.574 299.682 260.501 300.466 259.341 300.321C258.544 300.221 256.428 297.952 252.194 293.415L198.364 235.714C196.655 233.882 195.801 232.966 195.139 232.815C194.177 232.594 193.187 233.038 192.706 233.904C192.375 234.5 192.48 235.751 192.691 238.253L199.32 317.084C199.841 323.283 200.102 326.383 199.642 327.045C198.973 328.009 197.676 328.286 196.675 327.679C195.987 327.263 194.971 324.324 192.939 318.447L167.105 243.721C166.285 241.349 165.875 240.163 165.332 239.754C164.542 239.16 163.458 239.16 162.668 239.754C162.125 240.163 161.715 241.349 160.895 243.721L135.061 318.447C133.029 324.324 132.013 327.263 131.325 327.679C130.324 328.286 129.027 328.009 128.358 327.045C127.898 326.383 128.159 323.283 128.68 317.084L135.309 238.253C135.52 235.751 135.625 234.5 135.294 233.904C134.813 233.038 133.823 232.594 132.861 232.815C132.199 232.966 131.345 233.882 129.636 235.714L75.8058 293.415C71.5724 297.952 69.4556 300.221 68.6586 300.321C67.4987 300.466 66.4257 299.682 66.2041 298.528C66.0519 297.735 67.544 295.01 70.5282 289.559L108.474 220.255C109.679 218.055 110.281 216.955 110.22 216.275C110.131 215.288 109.405 214.478 108.438 214.286C107.772 214.153 106.621 214.641 104.319 215.615L31.8002 246.314C26.097 248.728 23.2455 249.935 22.4771 249.7C21.3589 249.358 20.6958 248.203 20.9601 247.059C21.1418 246.272 23.6074 244.393 28.5385 240.634L91.2402 192.839C93.2304 191.322 94.2256 190.563 94.4448 189.917C94.7631 188.979 94.428 187.942 93.6218 187.371C93.0667 186.977 91.8182 186.952 89.3211 186.901L10.6531 185.289C4.46639 185.163 1.37301 185.099 0.766167 184.57C-0.116911 183.8 -0.255547 182.474 0.449041 181.537C0.933229 180.892 3.94591 180.184 9.97126 178.766L86.5869 160.745C89.0188 160.173 90.2348 159.887 90.6965 159.387C91.367 158.66 91.4803 157.575 90.9749 156.724C90.6268 156.137 89.4966 155.604 87.236 154.536L16.0212 120.893C10.4205 118.247 7.62024 116.924 7.27987 116.192C6.78457 115.128 7.19442 113.86 8.21739 113.291C8.92037 112.901 11.9592 113.485 18.037 114.655L95.3191 129.524C97.7722 129.995 98.9987 130.231 99.623 129.963C100.53 129.573 101.072 128.628 100.955 127.644C100.874 126.966 100.057 126.016 98.4242 124.116L46.9761 64.2585C42.93 59.5511 40.907 57.1974 40.8919 56.39C40.87 55.2151 41.7575 54.2241 42.922 54.1231C43.7222 54.0538 46.2618 55.8306 51.3411 59.3844L115.927 104.572C117.977 106.006 119.002 106.723 119.681 106.733C120.667 106.748 121.544 106.107 121.835 105.159C122.036 104.507 121.674 103.305 120.951 100.902L98.1655 25.1796C96.3736 19.2245 95.4776 16.247 95.7905 15.5032C96.2458 14.4209 97.4574 13.8785 98.562 14.2626C99.3211 14.5264 100.922 17.1883 104.125 22.5119L144.847 90.2048C146.139 92.3535 146.786 93.4279 147.402 93.7146C148.297 94.131 149.358 93.9043 150.007 93.1579C150.454 92.6439 150.61 91.3981 150.921 88.9066L160.738 10.413Z" fill="#6750A4"/>
</svg>
