<svg width="303" height="312" viewBox="0 0 303 312" fill="none" xmlns="http://www.w3.org/2000/svg">
<path d="M0 79.3221C0 35.5137 35.5137 0 79.3221 0H222.928C266.736 0 302.25 35.5137 302.25 79.3221C302.25 115.45 278.097 145.937 245.057 155.516C244.842 155.579 244.692 155.776 244.692 156C244.692 156.224 244.842 156.421 245.057 156.484C278.097 166.063 302.25 196.55 302.25 232.678C302.25 276.486 266.736 312 222.928 312H79.3221C35.5137 312 0 276.486 0 232.678C0 196.785 23.8388 166.461 56.547 156.674C56.845 156.585 57.0514 156.311 57.0514 156C57.0514 155.689 56.845 155.415 56.547 155.326C23.8388 145.539 0 115.214 0 79.3221Z" fill="#6750A4"/>
</svg>
