<svg width="332" height="332" viewBox="0 0 332 332" fill="none" xmlns="http://www.w3.org/2000/svg">
<path d="M163.293 2.64206C164.056 1.27845 164.437 0.596648 164.902 0.310834C165.575 -0.103611 166.425 -0.103611 167.098 0.310834C167.563 0.596648 167.944 1.27845 168.707 2.64206L194.917 49.4925C195.386 50.3306 195.62 50.7497 195.937 51.0046C196.396 51.3737 196.989 51.5326 197.571 51.4425C197.973 51.3802 198.386 51.1345 199.211 50.6431L245.335 23.1743C246.677 22.3748 247.348 21.9751 247.893 21.9598C248.684 21.9377 249.42 22.3624 249.796 23.0581C250.055 23.5379 250.045 24.3191 250.023 25.8814L249.296 79.5599C249.283 80.5202 249.277 81.0003 249.424 81.3797C249.637 81.9288 250.071 82.363 250.62 82.576C251 82.7231 251.48 82.7166 252.44 82.7036L306.119 81.9766C307.681 81.9554 308.462 81.9448 308.942 82.2042C309.638 82.5803 310.062 83.316 310.04 84.1066C310.025 84.6518 309.625 85.323 308.826 86.6655L281.357 132.789C280.865 133.614 280.62 134.027 280.557 134.429C280.467 135.011 280.626 135.604 280.995 136.063C281.25 136.38 281.669 136.614 282.508 137.083L329.358 163.293C330.722 164.056 331.403 164.437 331.689 164.902C332.104 165.575 332.104 166.425 331.689 167.098C331.403 167.563 330.722 167.944 329.358 168.707L282.508 194.917C281.669 195.386 281.25 195.62 280.995 195.937C280.626 196.396 280.467 196.989 280.557 197.571C280.62 197.973 280.865 198.386 281.357 199.211L308.826 245.335C309.625 246.677 310.025 247.348 310.04 247.893C310.062 248.684 309.638 249.42 308.942 249.796C308.462 250.055 307.681 250.045 306.119 250.023L252.44 249.296C251.48 249.283 251 249.277 250.62 249.424C250.071 249.637 249.637 250.071 249.424 250.62C249.277 251 249.283 251.48 249.296 252.44L250.023 306.119C250.045 307.681 250.055 308.462 249.796 308.942C249.42 309.638 248.684 310.062 247.893 310.04C247.348 310.025 246.677 309.625 245.335 308.826L199.211 281.357C198.386 280.865 197.973 280.62 197.571 280.557C196.989 280.467 196.396 280.626 195.937 280.995C195.62 281.25 195.386 281.669 194.917 282.508L168.707 329.358C167.944 330.722 167.563 331.403 167.098 331.689C166.425 332.104 165.575 332.104 164.902 331.689C164.437 331.403 164.056 330.722 163.293 329.358L137.083 282.508C136.614 281.669 136.38 281.25 136.063 280.995C135.604 280.626 135.011 280.467 134.429 280.557C134.027 280.62 133.614 280.865 132.789 281.357L86.6655 308.826C85.323 309.625 84.6518 310.025 84.1066 310.04C83.316 310.062 82.5803 309.638 82.2042 308.942C81.9448 308.462 81.9554 307.681 81.9766 306.119L82.7036 252.44C82.7166 251.48 82.7231 251 82.576 250.62C82.363 250.071 81.9288 249.637 81.3797 249.424C81.0003 249.277 80.5202 249.283 79.5599 249.296L25.8814 250.023C24.3191 250.045 23.5379 250.055 23.0581 249.796C22.3624 249.42 21.9377 248.684 21.9598 247.893C21.9751 247.348 22.3748 246.677 23.1743 245.335L50.6431 199.211C51.1345 198.386 51.3802 197.973 51.4425 197.571C51.5326 196.989 51.3737 196.396 51.0046 195.937C50.7497 195.62 50.3306 195.386 49.4925 194.917L2.64206 168.707C1.27845 167.944 0.596648 167.563 0.310834 167.098C-0.103611 166.425 -0.103611 165.575 0.310834 164.902C0.596648 164.437 1.27845 164.056 2.64206 163.293L49.4925 137.083C50.3306 136.614 50.7497 136.38 51.0046 136.063C51.3737 135.604 51.5326 135.011 51.4425 134.429C51.3802 134.027 51.1345 133.614 50.6431 132.789L23.1743 86.6655C22.3748 85.323 21.9751 84.6518 21.9598 84.1066C21.9377 83.316 22.3624 82.5803 23.0581 82.2042C23.5379 81.9448 24.3191 81.9554 25.8814 81.9766L79.5599 82.7036C80.5202 82.7166 81.0003 82.7231 81.3797 82.576C81.9288 82.363 82.363 81.9288 82.576 81.3797C82.7231 81.0003 82.7166 80.5202 82.7036 79.5599L81.9766 25.8814C81.9554 24.3191 81.9448 23.5379 82.2042 23.0581C82.5803 22.3624 83.316 21.9377 84.1066 21.9598C84.6518 21.9751 85.323 22.3748 86.6655 23.1743L132.789 50.6431C133.614 51.1345 134.027 51.3802 134.429 51.4425C135.011 51.5326 135.604 51.3737 136.063 51.0046C136.38 50.7497 136.614 50.3306 137.083 49.4925L163.293 2.64206Z" fill="#6750A4"/>
</svg>
