<svg width="268" height="320" viewBox="0 0 268 320" fill="none" xmlns="http://www.w3.org/2000/svg">
<path d="M191.442 276.481C174.606 298.514 166.188 309.53 156.466 314.548C142.383 321.817 125.617 321.817 111.534 314.548C101.812 309.53 93.3938 298.514 76.5581 276.481L20.646 203.308C10.4059 189.906 5.28588 183.206 2.75054 176.032C-0.916845 165.654 -0.916846 154.346 2.75053 143.968C5.28589 136.794 10.4059 130.094 20.6461 116.692L76.5581 43.5194C93.3938 21.4863 101.812 10.4697 111.534 5.45181C125.617 -1.81727 142.383 -1.81727 156.466 5.4518C166.188 10.4697 174.606 21.4863 191.442 43.5195L247.354 116.692C257.594 130.094 262.714 136.794 265.249 143.968C268.917 154.346 268.917 165.654 265.249 176.032C262.714 183.206 257.594 189.906 247.354 203.308L191.442 276.481Z" fill="#6750A4"/>
</svg>
