<svg width="300" height="300" viewBox="0 0 300 300" fill="none" xmlns="http://www.w3.org/2000/svg">
<path d="M0 47.3684C0 45.697 0 44.8613 0.0219308 44.1547C0.768592 20.0969 20.0969 0.768592 44.1547 0.0219308C44.8613 0 45.697 0 47.3684 0C56.2825 0 60.7395 0 64.5082 0.116964C192.816 4.09916 295.901 107.184 299.883 235.492C300 239.26 300 243.717 300 252.632C300 254.303 300 255.139 299.978 255.845C299.231 279.903 279.903 299.231 255.845 299.978C255.139 300 254.303 300 252.632 300H67.4411C47.0642 300 36.8757 300 28.7935 296.8C17.0947 292.168 7.83183 282.905 3.19997 271.207C0 263.124 0 252.936 0 232.559V47.3684Z" fill="#6750A4"/>
</svg>
