<svg width="292" height="302" viewBox="0 0 292 302" fill="none" xmlns="http://www.w3.org/2000/svg">
<path d="M89.4155 25.7498C106.981 12.991 115.763 6.61156 125.124 3.44021C138.663 -1.14674 153.337 -1.14674 166.876 3.44021C176.237 6.61156 185.019 12.991 202.585 25.7498L242.083 54.4402C252.514 62.017 257.729 65.8054 261.981 70.3534C268.125 76.9261 272.839 84.702 275.823 93.1893C277.888 99.062 278.834 105.438 280.725 118.189L288.038 167.501C291.355 189.87 293.014 201.055 291.34 211.136C288.918 225.718 281.6 239.04 270.59 248.907C262.979 255.728 252.649 260.329 231.987 269.532L185.176 290.382C172.707 295.935 166.473 298.712 160.064 300.131C150.8 302.182 141.2 302.182 131.936 300.131C125.527 298.712 119.293 295.935 106.824 290.382L60.0131 269.532C39.3515 260.329 29.0207 255.728 21.4097 248.907C10.4005 239.04 3.08192 225.718 0.660161 211.136C-1.01406 201.055 0.644655 189.87 3.96208 167.501L11.2752 118.189C13.1662 105.437 14.1117 99.0619 16.1768 93.1892C19.1612 84.702 23.8747 76.9261 30.0191 70.3534C34.2706 65.8054 39.4862 62.017 49.9172 54.4402L89.4155 25.7498Z" fill="#6750A4"/>
</svg>
