<svg width="300" height="300" viewBox="0 0 300 300" fill="none" xmlns="http://www.w3.org/2000/svg">
<path d="M0 142.857C0 63.9593 67.1573 0 150 0C232.843 0 300 63.9593 300 142.857L300 242.857C300 274.416 273.137 300 240 300C230.178 300 220.907 297.752 212.724 293.768C208.554 291.737 204.394 289.512 200.216 287.277C185.513 279.411 170.592 271.429 154.27 271.429H145.73C129.408 271.429 114.487 279.411 99.7841 287.277C95.6062 289.512 91.4459 291.737 87.276 293.768C79.0926 297.752 69.8219 300 60 300C26.8629 300 0 274.416 0 242.857L0 142.857Z" fill="#6750A4"/>
</svg>
