<svg width="320" height="286" viewBox="0 0 320 286" fill="none" xmlns="http://www.w3.org/2000/svg">
<path d="M251.1 0.133992C229.439 0.133992 210.113 10.3021 197.481 26.1973L160 67.5128V67.3788L122.519 26.0633C109.887 10.1681 90.5608 0 68.8995 0C30.8478 0 0 31.3656 0 70.0586C0 104.058 28.3751 129.471 48.9187 153.884C69.3895 178.205 89.8565 202.523 110.323 226.844L156.272 281.437C157.516 282.914 158.756 284.388 160 285.866V286C161.244 284.522 162.484 283.048 163.728 281.571C179.043 263.375 194.358 245.178 209.677 226.978C230.144 202.657 250.614 178.339 271.081 154.018C291.625 129.608 320 104.196 320 70.1926C320 31.4996 289.152 0.133992 251.1 0.133992Z" fill="#6750A4"/>
</svg>
