<svg width="363" height="287" viewBox="0 0 363 287" fill="none" xmlns="http://www.w3.org/2000/svg">
<path d="M362.982 141.559C362.686 119.488 344.541 101.816 322.439 102.112C321.218 102.112 320.016 102.204 318.832 102.334C319.757 101.576 320.663 100.799 321.532 99.9491C337.365 84.5509 337.698 59.2263 322.291 43.4031C321.384 42.4788 320.478 41.5546 319.553 40.6673C303.721 25.2692 278.4 25.6019 262.974 41.4252C262.124 42.294 261.347 43.1997 260.588 44.124C260.718 42.9409 260.792 41.7394 260.81 40.5194C261.125 18.4482 243.443 0.314247 221.359 0C220.711 0 220.064 0 219.417 0H218.103C201.734 0 187.696 9.83409 181.5 23.9013C175.304 9.83409 161.247 0 144.897 0H143.583C142.936 0 142.289 0 141.641 0C119.557 0.295762 101.875 18.4297 102.171 40.5194C102.171 41.7394 102.264 42.9409 102.393 44.124C101.635 43.1997 100.858 42.294 100.007 41.4252C84.6001 25.6019 59.2608 25.2692 43.4283 40.6673C42.5035 41.573 41.5787 42.4788 40.6909 43.4031C25.2839 59.2263 25.6168 84.5325 41.4493 99.9491C42.3186 100.799 43.2249 101.576 44.1497 102.334C42.9659 102.204 41.7637 102.13 40.543 102.112C18.4589 101.816 0.31443 119.488 0 141.559C0 142.206 0 142.853 0 143.5C0 144.147 0 144.794 0 145.441C0.295934 167.512 18.4404 185.184 40.543 184.888C41.7637 184.888 42.9659 184.796 44.1497 184.666C43.2249 185.424 42.3186 186.201 41.4493 187.051C25.6168 202.449 25.2839 227.774 40.6909 243.597C41.5972 244.521 42.5035 245.445 43.4283 246.333C59.2608 261.731 84.5816 261.398 100.007 245.575C100.858 244.706 101.635 243.8 102.393 242.876C102.264 244.059 102.19 245.261 102.171 246.481C101.875 268.552 119.539 286.704 141.641 287C142.289 287 142.936 287 143.583 287H144.897C161.266 287 175.304 277.166 181.5 263.099C187.696 277.166 201.753 287 218.103 287H219.417C220.064 287 220.711 287 221.359 287C243.443 286.704 261.125 268.57 260.829 246.481C260.829 245.261 260.736 244.059 260.607 242.876C261.365 243.8 262.142 244.706 262.993 245.575C278.4 261.398 303.739 261.731 319.572 246.333C320.496 245.427 321.421 244.521 322.309 243.597C337.716 227.774 337.383 202.468 321.551 187.051C320.681 186.201 319.775 185.424 318.85 184.666C320.034 184.796 321.236 184.87 322.457 184.888C344.541 185.184 362.704 167.531 363 145.441C363 144.794 363 144.147 363 143.5C363 142.853 363 142.206 363 141.559H362.982Z" fill="#6750A4"/>
</svg>
