<svg width="372" height="254" viewBox="0 0 372 254" fill="none" xmlns="http://www.w3.org/2000/svg">
<path d="M356.196 84.0809C363.995 97.5909 367.894 104.346 369.864 111.403C372.712 121.606 372.712 132.394 369.864 142.597C367.894 149.654 363.995 156.409 356.196 169.919L332.437 211.079C324.638 224.589 320.738 231.344 315.613 236.58C308.202 244.148 298.86 249.543 288.601 252.177C281.505 254 273.706 254 258.108 254L113.892 254C98.2941 254 90.4949 254 83.399 252.178C73.1398 249.543 63.798 244.149 56.3873 236.58C51.2616 231.345 47.3621 224.589 39.5632 211.079L15.8039 169.919C8.0054 156.409 4.10612 149.654 2.13613 142.597C-0.712043 132.394 -0.712043 121.606 2.13613 111.403C4.10613 104.346 8.0054 97.5912 15.804 84.0812L39.5632 42.9213C47.3622 29.4107 51.2616 22.6554 56.3874 17.4202C63.798 9.85137 73.1398 4.45699 83.3989 1.82245C90.4949 0.000216961 98.294 0.000206784 113.892 0.000186615L258.108 1.33871e-07C273.706 -2.00358e-05 281.505 -3.00407e-05 288.601 1.82219C298.86 4.45672 308.202 9.8511 315.613 17.42C320.738 22.6551 324.638 29.4104 332.437 42.9211L356.196 84.0809Z" fill="#6750A4"/>
</svg>
