<svg width="320" height="300" viewBox="0 0 320 300" fill="none" xmlns="http://www.w3.org/2000/svg">
<path d="M15.7147 80.543C18.289 55.9642 19.5761 43.6748 24.3025 33.9777C31.142 19.9453 43.0768 9.11012 57.6278 3.72286C67.6833 0 79.9328 0 104.432 0H228.137C257.764 0 272.578 0 283.887 4.85392C300.261 11.8819 312.72 25.8495 317.927 43.0153C321.523 54.8709 319.967 69.733 316.854 99.457L304.285 219.457C301.711 244.036 300.424 256.325 295.697 266.022C288.858 280.055 276.923 290.89 262.372 296.277C252.317 300 240.067 300 215.568 300H91.8634C62.2359 300 47.4221 300 36.1134 295.146C19.7395 288.118 7.2802 274.151 2.07293 256.985C-1.5235 245.129 0.0330968 230.267 3.14629 200.543L15.7147 80.543Z" fill="#6750A4"/>
</svg>
