<svg width="312" height="312" viewBox="0 0 312 312" fill="none" xmlns="http://www.w3.org/2000/svg">
<path d="M170.57 82.8224C192.539 -27.6075 119.487 -27.6075 141.457 82.8224C119.487 -27.6075 51.9934 0.343277 114.549 93.9657C51.9934 0.343277 0.343277 51.9934 93.9657 114.549C0.343277 51.9934 -27.6075 119.487 82.8224 141.444C-27.6075 119.474 -27.6075 192.526 82.8224 170.556C-27.6075 192.526 0.356483 260.007 93.9657 197.451C0.356483 260.007 52.0066 311.657 114.549 218.034C51.9934 311.644 119.487 339.594 141.444 229.178C119.474 339.607 192.526 339.607 170.556 229.178C192.526 339.607 260.007 311.644 197.451 218.034C260.007 311.644 311.657 259.993 218.034 197.451C311.644 260.007 339.594 192.513 229.178 170.556C339.607 192.526 339.607 119.474 229.178 141.444C339.607 119.474 311.644 51.9934 218.034 114.549C311.644 51.9934 259.993 0.343277 197.451 93.9657C260.007 0.356483 192.513 -27.5943 170.556 82.8224H170.57Z" fill="#6750A4"/>
</svg>
