<svg width="320" height="330" viewBox="0 0 320 330" fill="none" xmlns="http://www.w3.org/2000/svg">
<path d="M145.147 8.15077C151.983 -2.71691 168.017 -2.71693 174.853 8.15075L191.238 34.2009C195.731 41.3458 204.797 44.2506 212.692 41.0751L241.475 29.4972C253.482 24.6671 266.455 33.9613 265.507 46.7154L263.235 77.2876C262.612 85.6727 268.215 93.2776 276.494 95.2843L306.681 102.601C319.275 105.653 324.23 120.692 315.861 130.461L295.8 153.877C290.298 160.3 290.298 169.7 295.8 176.123L315.861 199.539C324.23 209.308 319.275 224.347 306.681 227.399L276.494 234.716C268.215 236.722 262.612 244.327 263.235 252.712L265.507 283.285C266.455 296.039 253.482 305.333 241.475 300.503L212.692 288.925C204.797 285.749 195.731 288.654 191.238 295.799L174.853 321.849C168.017 332.717 151.983 332.717 145.147 321.849L128.762 295.799C124.269 288.654 115.203 285.749 107.308 288.925L78.5255 300.503C66.5177 305.333 53.5454 296.039 54.4931 283.285L56.7649 252.712C57.388 244.327 51.785 236.722 43.5056 234.716L13.3186 227.399C0.725189 224.347 -4.22982 209.308 4.1391 199.539L24.1997 176.123C29.7018 169.7 29.7018 160.3 24.1997 153.877L4.13911 130.461C-4.22981 120.692 0.725169 105.653 13.3186 102.601L43.5056 95.2843C51.785 93.2776 57.388 85.6727 56.7649 77.2876L54.4931 46.7154C53.5454 33.9613 66.5177 24.6671 78.5254 29.4972L107.308 41.0751C115.203 44.2506 124.269 41.3458 128.762 34.201L145.147 8.15077Z" fill="#6750A4"/>
</svg>
