<svg width="320" height="320" viewBox="0 0 320 320" fill="none" xmlns="http://www.w3.org/2000/svg">
<path d="M320 172C320 216.717 320 239.076 312.978 256.812C302.813 282.485 282.485 302.813 256.812 312.978C239.076 320 216.717 320 172 320H148C103.283 320 80.924 320 63.1875 312.978C37.5145 302.813 17.187 282.485 7.02234 256.812C-5.72205e-06 239.076 -3.90348e-06 216.717 5.83532e-09 172L2.10398e-06 148C6.0133e-06 103.283 8.10623e-06 80.924 7.02236 63.1875C17.187 37.5145 37.5146 17.187 63.1876 7.02234C80.924 -5.72205e-06 103.283 -3.90348e-06 148 5.82986e-09L172 2.10397e-06C216.717 6.01329e-06 239.076 8.10623e-06 256.812 7.02236C282.485 17.187 302.813 37.5146 312.978 63.1876C320 80.924 320 103.283 320 148V172Z" fill="#6750A4"/>
</svg>
