<svg width="320" height="320" viewBox="0 0 320 320" fill="none" xmlns="http://www.w3.org/2000/svg">
<path d="M246.453 38.8118C256.405 39.4881 261.381 39.8263 265.404 41.5853C271.223 44.1305 275.87 48.7766 278.415 54.5965C280.174 58.6186 280.512 63.5948 281.188 73.5471L282.732 96.2586C283.005 100.284 283.142 102.296 283.579 104.219C284.212 106.997 285.31 109.648 286.827 112.059C287.877 113.728 289.203 115.248 291.856 118.288L306.824 135.438C313.384 142.954 316.663 146.712 318.263 150.8C320.579 156.715 320.579 163.285 318.263 169.2C316.663 173.288 313.384 177.046 306.824 184.562L291.856 201.712C289.203 204.752 287.877 206.272 286.827 207.941C285.31 210.352 284.212 213.003 283.579 215.781C283.142 217.704 283.005 219.716 282.732 223.741L281.188 246.453C280.512 256.405 280.174 261.381 278.415 265.404C275.87 271.223 271.223 275.87 265.404 278.415C261.381 280.174 256.405 280.512 246.453 281.188L223.741 282.732C219.716 283.005 217.704 283.142 215.781 283.579C213.003 284.212 210.352 285.31 207.941 286.827C206.272 287.877 204.752 289.203 201.712 291.856L184.562 306.824C177.046 313.384 173.288 316.663 169.2 318.263C163.285 320.579 156.715 320.579 150.8 318.263C146.712 316.663 142.954 313.384 135.438 306.824L118.288 291.856C115.248 289.203 113.728 287.877 112.059 286.827C109.648 285.31 106.997 284.212 104.219 283.579C102.296 283.142 100.284 283.005 96.2587 282.732L73.5471 281.188C63.5947 280.512 58.6186 280.174 54.5965 278.415C48.7766 275.87 44.1305 271.223 41.5853 265.404C39.8263 261.381 39.4881 256.405 38.8118 246.453L37.2684 223.741C36.9949 219.716 36.8581 217.704 36.4206 215.781C35.7883 213.003 34.6903 210.352 33.173 207.941C32.123 206.272 30.7965 204.752 28.1437 201.712L13.1756 184.562C6.61643 177.046 3.33687 173.288 1.73662 169.2C-0.578875 163.285 -0.578874 156.715 1.73662 150.8C3.33687 146.712 6.61643 142.954 13.1756 135.438L28.1437 118.288C30.7965 115.248 32.123 113.728 33.173 112.059C34.6903 109.648 35.7883 106.997 36.4206 104.219C36.8581 102.296 36.9949 100.284 37.2684 96.2587L38.8118 73.5471C39.4881 63.5948 39.8263 58.6186 41.5853 54.5965C44.1305 48.7766 48.7766 44.1305 54.5965 41.5853C58.6186 39.8263 63.5948 39.4881 73.5471 38.8118L96.2586 37.2684C100.284 36.9949 102.296 36.8581 104.219 36.4206C106.997 35.7883 109.648 34.6903 112.059 33.173C113.728 32.123 115.248 30.7966 118.288 28.1437L135.438 13.1756C142.954 6.61644 146.712 3.33687 150.8 1.73662C156.715 -0.578875 163.285 -0.578875 169.2 1.73662C173.288 3.33687 177.046 6.61644 184.562 13.1756L201.712 28.1437C204.752 30.7966 206.272 32.123 207.941 33.173C210.352 34.6903 213.003 35.7883 215.781 36.4206C217.704 36.8581 219.716 36.9949 223.741 37.2684L246.453 38.8118Z" fill="#6750A4"/>
</svg>
