<svg width="316" height="286" viewBox="0 0 316 286" fill="none" xmlns="http://www.w3.org/2000/svg">
<path d="M104.461 51.2021C119.597 24.8217 127.165 11.6315 136.342 6.05941C149.648 -2.0198 166.352 -2.0198 179.658 6.05941C188.835 11.6315 196.403 24.8217 211.539 51.2021L293.309 193.72C308.3 219.847 315.795 232.911 315.993 243.585C316.28 259.06 307.949 273.418 294.364 280.864C284.994 286 269.919 286 239.77 286H76.2298C46.0806 286 31.006 286 21.636 280.864C8.05049 273.418 -0.279556 259.06 0.00717127 243.585C0.204929 232.911 7.70026 219.847 22.6909 193.72L104.461 51.2021Z" fill="#6750A4"/>
</svg>
